<?xml version="1.0" encoding="UTF-8"?>
<svg id="app_icon" data-name="app icon" xmlns="http://www.w3.org/2000/svg" viewBox="0 0 24 24">
  <g>
    <path d="M2.40039,21.75c-1.18555,0-2.15039-.99121-2.15039-2.20996v-11.08008c0-1.21875.96484-2.20996,2.15039-2.20996h1.23535l2.25586-2.68945c.15039-.19824.375-.31055.6084-.31055h4c.2334,0,.45801.1123.60059.30078l2.26367,2.69922h8.23535c1.18555,0,2.15039.99121,2.15039,2.20996v11.08008c0,1.21875-.96484,2.20996-2.15039,2.20996H2.40039Z" fill="#2e272d"/>
    <path d="M10.5,3.5c.15298,0,.30698.07759.41684.22121l2.17999,2.60004.14988.17875h8.35327c1.04767,0,1.90002.87923,1.90002,1.95996v11.08002c0,1.08076-.85235,1.96002-1.90002,1.96002H2.40002c-1.04767,0-1.90002-.87926-1.90002-1.96002v-11.08002c0-1.08073.85235-1.95996,1.90002-1.95996h1.35327l.14988-.17875,2.19492-2.61875c.09493-.12491.24893-.2025.40191-.2025h4M10.5,3h-4c-.31,0-.60999.14996-.79999.39996l-2.17999,2.60004h-1.12c-1.33001,0-2.40002,1.09998-2.40002,2.45996v11.08002c0,1.35998,1.07001,2.46002,2.40002,2.46002h19.19996c1.33001,0,2.40002-1.10004,2.40002-2.46002v-11.08002c0-1.35998-1.07001-2.45996-2.40002-2.45996h-8.12l-2.17999-2.60004c-.19-.25-.48999-.39996-.79999-.39996h0Z" fill="#f36"/>
  </g>
  <rect id="Shutter_button" data-name="Shutter button" x="17" y="5" width="3" height="1" fill="#f36"/>
  <g id="MB">
    <g>
      <g>
        <path d="M8.07031,18.63184c-.1748,0-.33496-.1084-.3877-.2627l-2.01562-5.12305-.79395,4.93262c-.02637.1748-.21582.33008-.40723.33008h-.80273c-.17383,0-.27539-.07422-.3291-.1377-.05664-.06445-.11719-.17871-.0918-.36035l1.53223-8.30469c.05078-.19824.22461-.33838.40723-.33838h.19727c.14551,0,.33594.10645.3877.26416l2.42676,5.93262,2.41992-5.94434c.04492-.13623.21484-.25244.38379-.25244h.19727c.18066,0,.3584.14404.40332.32764l1.52148,8.30762c.0293.13672.00391.2666-.07324.36133-.0752.09277-.19336.14453-.33301.14453h-.80273c-.18652,0-.36523-.13281-.41504-.30957l-.81738-4.93164-2,5.10938c-.0498.15137-.20215.25488-.38477.25488h-.22266Z" fill="#f36"/>
        <path d="M11.19433,9.55522c.09884,0,.1974.08649.22211.18519l1.51859,8.29692c.03706.17298-.04914.28404-.22212.28404h-.80253c-.11121,0-.20976-.0865-.23447-.17284l-.91374-5.51892h-.03707l-2.22228,5.6794c-.02471.07413-.09884.13577-.21004.13577h-.22212c-.09884,0-.18533-.06164-.21004-.13577l-2.23464-5.6794h-.04942l-.88903,5.51892c-.01235.08634-.12326.17284-.22211.17284h-.80254c-.17298,0-.25918-.11106-.23475-.28404l1.53123-8.29692c.02471-.0987.12327-.18519.22211-.18519h.19769c.07385,0,.18504.06178.20976.13591l2.5803,6.30911h.04942l2.56824-6.30911c.02471-.07413.12356-.13591.20976-.13591h.19769M11.19433,9.18022h-.19769c-.25191,0-.48974.165-.56552.39232l-2.2379,5.49577-2.25721-5.51913c-.07323-.22223-.34318-.36896-.55685-.36896h-.19769c-.26705,0-.51893.20168-.58588.46912l-1.53623,8.31993c-.03027.21195.01784.39305.13294.52555.11291.12997.28003.20155.47058.20155h.80254c.28814,0,.55431-.22194.59333-.49474l.6846-4.24954,1.76831,4.49422c.07017.2122.30284.37347.559.37347h.22212c.26429,0,.48638-.15394.5658-.39218l1.74517-4.45903.70219,4.24121c.08317.29958.3334.48659.60443.48659h.80253c.19767,0,.36799-.07602.47959-.21406.11285-.13959.15163-.32552.10921-.52354l-1.5164-8.28587c-.07205-.291-.32393-.49268-.59098-.49268h0Z" fill="#f36"/>
      </g>
      <g>
        <path d="M14.98242,18.50879c-.23242,0-.42188-.18945-.42188-.42188v-8.17334c0-.23291.18945-.42236.42188-.42236h2.76562c1.57129,0,2.75586,1.0625,2.75586,2.47168,0,.97559-.6543,1.61719-1.08984,1.9375.55664.29883,1.34961.9209,1.34961,2.03809,0,1.48926-1.21094,2.57031-2.87891,2.57031h-2.90234ZM17.87207,16.99805c.65332,0,1.14648-.49805,1.14648-1.1582,0-.61133-.59668-1.10938-1.33105-1.10938h-1.50488v2.26758h1.68945ZM17.6748,13.24512c.64844,0,1.08398-.45605,1.08398-1.13379,0-.66895-.41504-1.08447-1.08398-1.08447h-1.47949v2.21826h1.47949Z" fill="#f36"/>
        <path d="M17.74854,9.67878c1.49416,0,2.56823.98772,2.56823,2.28405,0,.95067-.70369,1.62979-1.28412,1.96311.65428.27168,1.5433.87667,1.5433,2.01252,0,1.38282-1.13585,2.3829-2.6915,2.3829h-2.90155c-.13562,0-.23447-.11105-.23447-.23461v-8.17336c0-.12356.09885-.23461.23447-.23461h2.76564M16.00784,13.43214h1.66685c.79018,0,1.27148-.58028,1.27148-1.32118,0-.75312-.4813-1.27162-1.27148-1.27162h-1.66685v2.5928M15.99548,17.18551h1.87661c.75312,0,1.33355-.58028,1.33355-1.34575,0-.75326-.71605-1.29648-1.51859-1.29648h-1.69157v2.64223M17.74854,9.30378h-2.76564c-.33606,0-.60947.27347-.60947.60961v8.17336c0,.33614.27341.60961.60947.60961h2.90155c1.77685,0,3.0665-1.15986,3.0665-2.7579,0-.8422-.4318-1.57025-1.20482-2.06386.43824-.37971.94564-1.01346.94564-1.91177,0-1.51591-1.26531-2.65905-2.94323-2.65905h0ZM16.38284,11.21434h1.29185c.56135,0,.89648.33519.89648.89662,0,.43648-.23479.94618-.89648.94618h-1.29185v-1.8428h0ZM16.37048,14.91828h1.31657c.63058,0,1.14359.41337,1.14359.92148,0,.55342-.41209.97075-.95855.97075h-1.50161v-1.89223h0Z" fill="#f36"/>
      </g>
    </g>
  </g>
</svg>