<?xml version="1.0" encoding="UTF-8"?><svg id="Layer_1" xmlns="http://www.w3.org/2000/svg" width="468.09" height="75.22" viewBox="0 0 468.09 75.22"><defs><style>.cls-1{fill:#fff;}.cls-2{fill:none;stroke:#fff;stroke-linejoin:round;}</style></defs><path class="cls-1" d="m22.95,10.49c.07-.27.36-.46.64-.46h.78c.36,0,.57.13.71.46l14.69,40.67h.14l14.76-40.67c.14-.33.36-.46.71-.46h.78c.29,0,.57.2.64.46l10.12,45.7c.14.66-.14.86-.78.86h-1.71c-.43,0-.78-.33-.86-.73l-8.06-38.82h-.14l-14.4,39.68c-.14.4-.57.53-1,.53h-.29c-.36,0-.78-.07-.93-.53l-14.4-39.68h-.14l-8.06,38.82c-.07.4-.43.73-.86.73h-1.71c-.64,0-.93-.2-.78-.86L22.95,10.49Z"/><path class="cls-1" d="m87.61,29.9c7.98,0,14.33,6.29,14.33,13.84s-6.34,13.98-14.33,13.98-14.33-6.23-14.33-13.98,6.27-13.84,14.33-13.84Zm0,25.1c6.27,0,11.19-4.97,11.19-11.26s-4.92-11.06-11.19-11.06-11.26,4.97-11.26,11.06,4.92,11.26,11.26,11.26Z"/><path class="cls-1" d="m110.64,31.43c0-.46.43-.86.93-.86h.86c.43,0,.71.26.78.66l.36,2.85c.78-.99,4.06-4.17,9.84-4.17,4.35,0,7.56,1.72,9.34,4.84.86-1.06,4.85-4.84,10.69-4.84,7.77,0,11.12,4.7,11.12,12.12v14.17c0,.46-.43.86-.93.86h-1.43c-.43,0-.78-.33-.78-.86v-14.17c0-6.09-2.85-9.27-8.2-9.27s-8.48,3.44-9.41,4.5c.43,1.39.64,2.98.64,4.77v14.17c0,.46-.43.86-.93.86h-1.35c-.5,0-.86-.33-.86-.86v-14.17c0-6.09-2.92-9.27-8.27-9.27-5.77,0-8.91,4.04-9.27,4.57v18.88c0,.53-.29.86-.93.86h-1.43c-.5,0-.78-.4-.78-.86v-24.77Z"/><path class="cls-1" d="m177.01,29.9c7.49,0,12.9,5.1,12.9,12.12,0,1.06,0,2.58-1.07,2.58h-22.74c.29,5.7,4.71,10.47,11.12,10.47,3.78,0,6.7-1.39,8.41-2.45.64-.4.93-.46,1.28,0l.71.93c.21.26.14.66-.29,1.06-1.43,1.33-5.92,3.11-10.34,3.11-8.7,0-14.04-6.23-14.04-13.98s5.35-13.84,14.04-13.84Zm9.77,12.32c0-5.17-3.35-9.67-9.77-9.67s-10.48,4.24-10.84,9.67h20.6Z"/><path class="cls-1" d="m198.33,31.43c0-.46.43-.86,1-.86h.71c.5,0,.78.26.86.66l.29,2.85c.93-.93,4.85-4.17,10.55-4.17,7.98,0,11.48,4.7,11.48,12.12v14.17c0,.46-.43.86-.93.86h-1.28c-.5,0-.93-.4-.93-.86v-14.17c0-6.09-3.07-9.27-8.48-9.27-5.85,0-9.91,4.24-10.19,4.57v18.88c0,.53-.29.86-.93.86h-1.35c-.5,0-.78-.4-.78-.86v-24.77Z"/><path class="cls-1" d="m234.83,33.15h-3.35c-.71,0-.86-.33-.86-.86v-1.06c0-.46.36-.66.86-.66h3.35v-7.22c0-.53.43-.86.93-.86l1.21-.07c.5,0,.93.4.93.86v7.29h9.91c.57,0,.93.4.93.86v.86c0,.53-.36.86-.93.86h-9.91v16.89c0,3.11.36,4.84,3.71,4.84,2.5,0,5.56-1.26,6.49-1.79.64-.33.93-.07,1.14.27l.5.79c.29.46.21.86-.21,1.13-1.07.79-4.21,2.45-8.27,2.45-5.92,0-6.42-3.25-6.42-7.48v-17.09Z"/><path class="cls-1" d="m269.26,29.9c7.98,0,14.33,6.29,14.33,13.84s-6.34,13.98-14.33,13.98-14.33-6.23-14.33-13.98,6.27-13.84,14.33-13.84Zm0,25.1c6.27,0,11.19-4.97,11.19-11.26s-4.92-11.06-11.19-11.06-11.26,4.97-11.26,11.06,4.92,11.26,11.26,11.26Z"/><path class="cls-1" d="m293.22,11.55c0-.46.43-.86.93-.86h15.18c8.77,0,14.76,4.7,14.76,11.99,0,5.23-3.42,9.07-7.84,10.73,5.06,1.26,9.41,4.7,9.41,11.06,0,7.42-6.42,12.58-15.68,12.58h-15.83c-.5,0-.93-.4-.93-.86V11.55Zm17.04,42.72c6.92,0,11.76-4.11,11.76-9.87s-5.42-9.41-12.19-9.41h-13.33v19.28h13.76Zm-.43-22.12c6.7,0,10.62-3.91,10.62-9.34,0-5.76-4.28-9.21-11.12-9.21h-12.76v18.55h13.26Z"/><path class="cls-1" d="m347.25,29.9c7.98,0,14.33,6.29,14.33,13.84s-6.34,13.98-14.33,13.98-14.33-6.23-14.33-13.98,6.27-13.84,14.33-13.84Zm0,25.1c6.27,0,11.19-4.97,11.19-11.26s-4.92-11.06-11.19-11.06-11.26,4.97-11.26,11.06,4.92,11.26,11.26,11.26Z"/><path class="cls-1" d="m382.47,29.9c7.98,0,14.33,6.29,14.33,13.84s-6.34,13.98-14.33,13.98-14.33-6.23-14.33-13.98,6.27-13.84,14.33-13.84Zm0,25.1c6.27,0,11.19-4.97,11.19-11.26s-4.92-11.06-11.19-11.06-11.26,4.97-11.26,11.06,4.92,11.26,11.26,11.26Z"/><path class="cls-1" d="m406.71,33.15h-3.35c-.71,0-.86-.33-.86-.86v-1.06c0-.46.36-.66.86-.66h3.35v-7.22c0-.53.43-.86.93-.86l1.21-.07c.5,0,.93.4.93.86v7.29h9.91c.57,0,.93.4.93.86v.86c0,.53-.36.86-.93.86h-9.91v16.89c0,3.11.36,4.84,3.71,4.84,2.5,0,5.56-1.26,6.49-1.79.64-.33.93-.07,1.14.27l.5.79c.29.46.21.86-.21,1.13-1.07.79-4.21,2.45-8.27,2.45-5.92,0-6.42-3.25-6.42-7.48v-17.09Z"/><path class="cls-1" d="m428.95,11.55c0-.46.43-.86,1-.86h1.14c.5,0,.93.4.93.86v22.59c.93-.86,4.71-4.24,10.34-4.24,7.41,0,11.48,4.24,11.48,12.12v14.17c0,.46-.43.86-.93.86h-1.28c-.5,0-.93-.4-.93-.86v-14.17c0-6.09-3.07-9.27-8.48-9.27-5.92,0-9.91,4.31-10.19,4.64v18.81c0,.53-.29.86-.93.86h-1.35c-.5,0-.78-.4-.78-.86V11.55Z"/><path id="path3773" class="cls-2" d="m88.76,46.99c1.62-.62,2.43-2.44,1.81-4.05-.62-1.62-2.44-2.43-4.05-1.81-1.62.62-2.43,2.44-1.81,4.05.32.83.97,1.49,1.81,1.81l-2.11,5.51c-4.66-1.79-6.99-7.02-5.2-11.68s7.02-6.99,11.68-5.2c4.66,1.79,6.99,7.02,5.2,11.68-.92,2.39-2.81,4.28-5.2,5.2l-2.11-5.51Z"/><path class="cls-1" d="m269.31,35.33c.15,0,.3,0,.45.01l-2.98,5.16-2.17-3.76c1.39-.92,3.02-1.41,4.69-1.41m3.78.9c1.63.81,2.97,2.14,3.79,3.75h-5.96l2.16-3.75m-10.9,2.97l2.96,5.13.23.4h-4.53c-.03-.3-.05-.6-.05-.9,0-1.65.48-3.25,1.38-4.63m15.57,3.73c.03.3.05.6.05.9,0,1.66-.48,3.26-1.38,4.63l-3.19-5.53h4.53m-5.93,4.23l2.17,3.76c-1.39.92-3.02,1.41-4.69,1.41-.15,0-.3,0-.45-.01l2.96-5.13.02-.03m-4.14.52l-2.16,3.75c-1.63-.81-2.97-2.14-3.79-3.75h5.96m1.62-13.35c-2.28,0-4.37.81-6,2.14l3.48,6.03.06-.1,4.53-7.85c-.67-.14-1.35-.23-2.06-.23h0Zm3.36.63l-3.48,6.02h9.18c-.87-2.77-2.99-5-5.7-6.02h0Zm-10.36,2.46c-1.55,1.69-2.51,3.93-2.51,6.41,0,.66.07,1.28.19,1.9h7.12l-1.09-1.9-3.71-6.41h0Zm16.3,4.51h-7.12l.28.48,4.52,7.84c1.56-1.69,2.51-3.93,2.51-6.41,0-.66-.07-1.28-.19-1.9h0Zm-6.78,3.23l-.88,1.52-3.7,6.42c.66.14,1.35.23,2.06.23,2.28,0,4.37-.81,6-2.14l-3.48-6.03h0Zm-2.41,1.52h-9.18c.87,2.77,2.99,5,5.7,6.02l3.48-6.02h0Z"/></svg>