<?xml version="1.0" encoding="UTF-8"?>
<svg id="TEXT" xmlns="http://www.w3.org/2000/svg" viewBox="0 0 1920 1080">
  <g>
    <polyline points="64.78261 738.04992 64.78261 1019.11449 343.47205 1019.11449" fill="none" stroke="#fff" stroke-miterlimit="10" stroke-width="7.33696"/>
    <polyline points="343.47205 60.88551 64.78261 60.88551 64.78261 332.70361" fill="none" stroke="#fff" stroke-miterlimit="10" stroke-width="7.33696"/>
  </g>
  <g>
    <polyline points="1856.21739 738.04992 1856.21739 1019.11449 1577.5279 1019.11449" fill="none" stroke="#fff" stroke-miterlimit="10" stroke-width="7.33696"/>
    <polyline points="1577.5279 60.88551 1856.21739 60.88551 1856.21739 332.70361" fill="none" stroke="#fff" stroke-miterlimit="10" stroke-width="7.33696"/>
  </g>
  <g>
    <path d="M147.43164,132.89795v-42.87549h18.66016c1.93213,0,3.71387.40283,5.34424,1.20752,1.63037.80615,3.02881,1.86279,4.19678,3.17041,1.16748,1.30859,2.0835,2.79883,2.74756,4.46875.66455,1.6709.99658,3.37256.99658,5.10303,0,1.44922-.20215,2.83789-.604,4.1665-.40283,1.32861-.96631,2.55713-1.69092,3.68359-.72461,1.12793-1.61035,2.10449-2.65674,2.9292-1.04736.82568-2.19482,1.43994-3.44238,1.8418l10.08496,16.30469h-7.66943l-9.2998-14.91602h-9.90332v14.91602h-6.76367ZM154.19531,112.00342h11.83594c.96631,0,1.8418-.21094,2.62695-.63379s1.4585-1.00586,2.02295-1.75146c.56348-.74414,1.00586-1.6001,1.32861-2.56641.32178-.96631.48291-1.99268.48291-3.07959s-.19141-2.11377-.57373-3.08008c-.38281-.96631-.88574-1.81152-1.50977-2.53613-.62451-.72461-1.34912-1.29834-2.17383-1.72119-.82568-.42285-1.68164-.63379-2.56641-.63379h-11.47363v16.00244Z" fill="#fcfcfc"/>
    <path d="M216.75732,126.91943v5.97852h-29.40918v-42.87549h28.86572v5.97852h-22.10205v12.19824h19.14307v5.61621h-19.14307v13.104h22.64551Z" fill="#fcfcfc"/>
    <path d="M220.13867,111.1582c0-2.57568.4624-5.14258,1.38867-7.69971.92578-2.55566,2.28467-4.85059,4.07617-6.88379,1.79102-2.03271,3.9751-3.67334,6.55225-4.92188,2.57568-1.24756,5.49512-1.87207,8.75635-1.87207,3.9043,0,7.24658.86621,10.02441,2.59668,2.77783,1.73145,4.87061,3.98584,6.28027,6.76367l-5.31396,3.56299c-.604-1.28809-1.32861-2.375-2.17432-3.26123-.84521-.88525-1.77197-1.58984-2.77783-2.11377-1.00684-.52246-2.05322-.89502-3.14014-1.11719-1.08691-.2207-2.13428-.33203-3.14014-.33203-2.25488,0-4.22705.45312-5.91797,1.35889s-3.10986,2.104-4.25732,3.59326c-1.14746,1.48975-2.01367,3.16064-2.59668,5.01221-.58398,1.85205-.87549,3.7041-.87549,5.55566,0,2.09375.34131,4.08643,1.02637,5.97852.68408,1.89258,1.64014,3.5625,2.86865,5.01221,1.22754,1.44922,2.68701,2.60693,4.37793,3.47217,1.69092.86621,3.54199,1.29834,5.55566,1.29834,1.04639,0,2.12305-.13037,3.23096-.39258,1.10645-.26123,2.17383-.68408,3.20068-1.26807,1.02637-.58301,1.97168-1.31836,2.83789-2.2041.86523-.88525,1.57959-1.95215,2.14404-3.20068l5.61572,3.20068c-.68457,1.61035-1.65088,3.02979-2.89844,4.25732-1.24854,1.22852-2.65723,2.26465-4.22705,3.10986-1.57031.84521-3.23096,1.48975-4.98193,1.93262-1.75146.44238-3.47266.66406-5.16357.66406-3.01904,0-5.77734-.64355-8.27295-1.93262-2.49658-1.2876-4.6499-2.96826-6.46143-5.04199-1.81201-2.07324-3.22168-4.42822-4.22754-7.06543-1.00635-2.63672-1.50928-5.32373-1.50928-8.06201Z" fill="#fcfcfc"/>
  </g>
  <g id="Battery">
    <path d="M1699.27383,98.86023l-8.00374,13.33956h10.67165l-8.00374,13.33956" fill="none" stroke="#fff" stroke-linecap="round" stroke-linejoin="round" stroke-width="4.40217"/>
    <path d="M1709.5613,98.54015h8.38792v27.31929h-13.16615" fill="none" stroke="#fff" stroke-linecap="round" stroke-linejoin="round" stroke-width="4.40217"/>
    <path d="M1728.62087,117.53562v-10.67165" fill="none" stroke="#fff" stroke-linecap="round" stroke-linejoin="round" stroke-width="4.40217"/>
    <path d="M1683.63987,125.85944h-8.37724v-27.31929h13.16881" fill="none" stroke="#fff" stroke-linecap="round" stroke-linejoin="round" stroke-width="4.40217"/>
  </g>
  <g>
    <path d="M1756.10938,123.29834h-3.62598v-14.56396c0-1.73828.04102-3.1167.12305-4.13477-.23633.24707-.52637.51953-.87109.81787s-1.49902,1.24463-3.46387,2.83838l-1.82031-2.29834,6.63379-5.21484h3.02441v22.55566Z" fill="#fff"/>
    <path d="M1778.78809,112.02051c0,3.91895-.62988,6.82959-1.88965,8.73242-1.26074,1.90283-3.18652,2.854-5.77832,2.854-2.50977,0-4.41211-.98193-5.70801-2.94678-1.2959-1.96436-1.94434-4.84424-1.94434-8.63965,0-3.98047.62988-6.91406,1.89062-8.80176,1.25977-1.88721,3.17969-2.83105,5.76172-2.83105,2.51953,0,4.42773.9873,5.72363,2.9624,1.2959,1.97461,1.94434,4.86523,1.94434,8.67041ZM1767.13965,112.02051c0,3.07568.31641,5.27148.94922,6.58789s1.64258,1.97461,3.03125,1.97461,2.4043-.66846,3.04688-2.00586c.64258-1.33691.96484-3.52246.96484-6.55664,0-3.02393-.32227-5.21191-.96484-6.56445s-1.6582-2.02881-3.04688-2.02881-2.39844.66309-3.03125,1.99023c-.63281,1.32666-.94922,3.52783-.94922,6.60303Z" fill="#fff"/>
    <path d="M1796.82324,112.02051c0,3.91895-.62988,6.82959-1.88965,8.73242-1.26074,1.90283-3.18652,2.854-5.77832,2.854-2.50977,0-4.41211-.98193-5.70801-2.94678-1.2959-1.96436-1.94434-4.84424-1.94434-8.63965,0-3.98047.62988-6.91406,1.89062-8.80176,1.25977-1.88721,3.17969-2.83105,5.76172-2.83105,2.51953,0,4.42773.9873,5.72363,2.9624,1.2959,1.97461,1.94434,4.86523,1.94434,8.67041ZM1785.1748,112.02051c0,3.07568.31641,5.27148.94922,6.58789s1.64258,1.97461,3.03125,1.97461,2.4043-.66846,3.04688-2.00586c.64258-1.33691.96484-3.52246.96484-6.55664,0-3.02393-.32227-5.21191-.96484-6.56445s-1.6582-2.02881-3.04688-2.02881-2.39844.66309-3.03125,1.99023c-.63281,1.32666-.94922,3.52783-.94922,6.60303Z" fill="#fff"/>
    <path d="M1809.42773,107.46924c0,2.36572-.4248,4.14258-1.27246,5.33057-.84863,1.18799-2.10156,1.78174-3.75684,1.78174-1.56348,0-2.77539-.61426-3.63379-1.84375-.8584-1.229-1.28809-2.98535-1.28809-5.26855,0-4.7002,1.64062-7.05029,4.92188-7.05029,1.61426,0,2.85645.60938,3.72559,1.82812s1.30371,2.95947,1.30371,5.22217ZM1802.48535,107.5c0,1.53271.14844,2.67432.44727,3.42529.29785.75098.78711,1.12598,1.46582,1.12598,1.35742,0,2.03613-1.51709,2.03613-4.55127,0-3.03369-.67871-4.55127-2.03613-4.55127-.67871,0-1.16797.37549-1.46582,1.12646-.29883.75098-.44727,1.89258-.44727,3.4248ZM1819.5332,100.74268l-12.5127,22.55566h-2.99219l12.51172-22.55566h2.99316ZM1824.11523,116.51025c0,2.36572-.42676,4.13965-1.28027,5.32227-.85449,1.18311-2.09863,1.77441-3.73438,1.77441-1.56348,0-2.77637-.60938-3.64062-1.82812s-1.2959-2.9751-1.2959-5.26855c0-4.7002,1.64551-7.05078,4.93652-7.05078,1.58398,0,2.81641.60693,3.69531,1.82031.87988,1.21387,1.31934,2.95752,1.31934,5.23047ZM1817.17285,116.51025c0,1.53223.15137,2.6792.45508,3.44043.30273.76123.79395,1.1416,1.47266,1.1416,1.34766,0,2.02148-1.52734,2.02148-4.58203,0-3.01367-.67383-4.52051-2.02148-4.52051-.67871,0-1.16992.37012-1.47266,1.11084-.30371.74023-.45508,1.87695-.45508,3.40967Z" fill="#fff"/>
  </g>
  <g>
    <path d="M1359.36651,103.67971h-3.76151v19.27741h3.08945c6.39548,0,9.59251-3.24572,9.59251-9.73864,0-6.35967-2.97341-9.53878-8.92045-9.53878Z" fill="#fff"/>
    <path d="M1310.31913,88.69471v50.48281h74.23911v-50.48281h-74.23911ZM1344.26705,126.60902h-4.36065v-11.97333h-12.24641v11.97333h-4.34201v-26.56345h4.34201v10.86501h12.24641v-10.86501h4.36065v26.56345ZM1369.21417,123.12968c-2.4347,2.31936-5.94129,3.47933-10.51973,3.47933h-7.43146v-26.56345h8.21255c4.22729,0,7.51598,1.13855,9.86615,3.4155,2.35017,2.27783,3.52511,5.48129,3.52511,9.61185,0,4.38501-1.21793,7.73755-3.65263,10.05677Z" fill="#fff"/>
  </g>
  <rect x="1406.53993" y="88.69485" width="86.23372" height="50.48266" fill="none" stroke="#fff" stroke-miterlimit="10" stroke-width="3.16299"/>
  <g>
    <path d="M1425.38672,126.60889h-4.26953v-17.15186c0-2.04688.04785-3.66992.14551-4.86914-.2793.29053-.62109.61182-1.02637.96289-.40625.35156-1.76562,1.46582-4.0791,3.34326l-2.14453-2.70752,7.81348-6.14111h3.56055v26.56348Z" fill="#fff"/>
    <path d="M1434.16309,115.28955c0-10.39307,4.2334-15.58936,12.7002-15.58936,1.33203,0,2.45898.10303,3.37988.30908v3.56104c-.9209-.2666-1.9873-.3999-3.19824-.3999-2.84668,0-4.98438.76318-6.41406,2.28955-1.42871,1.52588-2.2041,3.97314-2.3252,7.34033h.21777c.56934-.98096,1.36914-1.74121,2.39844-2.28027s2.24121-.80859,3.63379-.80859c2.41016,0,4.28809.73877,5.63281,2.2168s2.0166,3.48242,2.0166,6.01416c0,2.78613-.77832,4.9873-2.33496,6.60449-1.55664,1.6167-3.67871,2.42529-6.36816,2.42529-1.90137,0-3.55469-.45703-4.95996-1.37158s-2.48633-2.24707-3.24316-3.99756c-.75781-1.75-1.13574-3.85449-1.13574-6.31348ZM1443.42969,123.44727c1.46484,0,2.59473-.47217,3.38867-1.41699.79297-.94482,1.18945-2.29541,1.18945-4.05176,0-1.52637-.37207-2.72559-1.11719-3.59766s-1.8623-1.30811-3.35254-1.30811c-.9209,0-1.76855.19727-2.54297.59033-.77539.39404-1.3877.93311-1.83594,1.61719-.44824.68457-.67188,1.38428-.67188,2.09863,0,1.70801.46289,3.14648,1.38965,4.31543s2.11035,1.75293,3.55273,1.75293Z" fill="#fff"/>
    <path d="M1456.11133,108.82129c0-1.8291.89551-2.74365,2.68848-2.74365.9082,0,1.58691.24219,2.03516.72656.44824.48486.67188,1.15723.67188,2.01709s-.2334,1.5415-.69922,2.04395c-.4668.50293-1.13574.75391-2.00781.75391s-1.53809-.24805-1.99805-.74463c-.46094-.49658-.69043-1.18115-.69043-2.05322ZM1456.11133,124.33789c0-.88428.22949-1.5625.69043-2.03516.45996-.47217,1.12598-.7085,1.99805-.7085.88379,0,1.55664.24512,2.0166.73584.46094.49072.69043,1.16016.69043,2.00781,0,.85986-.2334,1.5415-.69922,2.04395-.4668.50244-1.13574.75391-2.00781.75391s-1.53809-.24854-1.99805-.74512c-.46094-.49609-.69043-1.18066-.69043-2.05273Z" fill="#fff"/>
    <path d="M1483.52832,111.38281c0,5.23291-1.05371,9.13916-3.16113,11.71924s-5.28125,3.87012-9.52051,3.87012c-1.61133,0-2.76855-.09717-3.4707-.29053v-3.57959c1.07812.30322,2.16211.45459,3.25195.45459,2.88281,0,5.0332-.77539,6.4502-2.32568s2.19238-3.98535,2.32617-7.3042h-.21875c-.71484,1.09033-1.57715,1.87744-2.58887,2.36182-1.01172.48486-2.19531.72705-3.55176.72705-2.35059,0-4.19727-.73291-5.54199-2.19873-1.34473-1.46533-2.0166-3.47607-2.0166-6.03223,0-2.77344.77832-4.98096,2.33496-6.62256,1.55664-1.64111,3.67871-2.46191,6.36816-2.46191,1.88965,0,3.53711.46045,4.94238,1.38086,1.4043.9209,2.48926,2.25635,3.25195,4.00635.7627,1.75049,1.14453,3.84912,1.14453,6.29541ZM1474.26172,103.24316c-1.47754,0-2.61035.48145-3.39746,1.44434s-1.18066,2.31689-1.18066,4.06104c0,1.51416.36621,2.7041,1.09961,3.57031.73242.86621,1.84375,1.29883,3.33398,1.29883,1.44141,0,2.65234-.42969,3.63379-1.29004.98047-.85986,1.47168-1.86523,1.47168-3.01611,0-1.07764-.20898-2.08594-.62695-3.0249-.41797-.93848-1.00293-1.68066-1.75391-2.22559-.75098-.54541-1.61035-.81787-2.58008-.81787Z" fill="#fff"/>
  </g>
  <g>
    <path d="M1529.03906,124.62842h-18.00586v-3.23438l6.85059-6.88574c2.02246-2.07129,3.36426-3.54004,4.02441-4.40625.66016-.86572,1.1416-1.68066,1.44434-2.44385s.4541-1.58057.4541-2.45264c0-1.19922-.36035-2.14404-1.08105-2.83447s-1.7168-1.03564-2.98926-1.03564c-1.0166,0-2.00098.18799-2.95215.56299-.95117.37598-2.0498,1.0542-3.29785,2.03516l-2.30762-2.81641c1.47754-1.24707,2.91309-2.13135,4.30664-2.65234,1.39258-.521,2.87695-.78125,4.45117-.78125,2.4707,0,4.45117.64502,5.94141,1.93457,1.49023,1.29004,2.23535,3.02539,2.23535,5.20557,0,1.19922-.21582,2.33789-.64551,3.41602s-1.08984,2.18945-1.98047,3.33398-2.37109,2.69238-4.44238,4.64209l-4.61523,4.46973v.18164h12.60938v3.76123Z" fill="#fff"/>
    <path d="M1541.28613,108.04004c2.67676,0,4.79688.7085,6.35938,2.12549,1.5625,1.41748,2.34375,3.34961,2.34375,5.79639,0,2.83398-.8877,5.04785-2.66211,6.64062s-4.29688,2.38916-7.56738,2.38916c-2.96777,0-5.2998-.47803-6.99512-1.43506v-3.87012c.98145.55713,2.10742.9873,3.37891,1.29004,1.27246.30273,2.45312.4541,3.54297.4541,1.92676,0,3.3916-.42969,4.39746-1.29004,1.00488-.85986,1.50781-2.11963,1.50781-3.7793,0-3.17334-2.02246-4.76025-6.06836-4.76025-.56934,0-1.27148.05762-2.10742.17236-.83594.11523-1.56934.24561-2.19824.39062l-1.9082-1.12646,1.01758-12.97266h13.80859v3.79736h-10.04785l-.59961,6.57715c.42383-.07275.94141-.15723,1.55371-.25439.61133-.09668,1.35938-.14502,2.24414-.14502Z" fill="#fff"/>
    <path d="M1559.69043,124.62842h-4.30566v-26.56348h14.98926v3.67041h-10.68359v8.30322h10.01172v3.68848h-10.01172v10.90137Z" fill="#fff"/>
    <path d="M1592.77734,106.0957c0,2.77393-.9082,4.8999-2.72559,6.37744-1.81738,1.47803-4.40332,2.2168-7.75781,2.2168h-2.76172v9.93848h-4.34277v-26.56348h7.64941c3.31836,0,5.80469.67871,7.45801,2.03516s2.48047,3.35498,2.48047,5.99561ZM1579.53223,111.0376h2.30664c2.22852,0,3.86426-.38721,4.90625-1.1626,1.04102-.7749,1.5625-1.98633,1.5625-3.63379,0-1.52637-.4668-2.66455-1.39941-3.41602-.93262-.75098-2.38574-1.12646-4.36035-1.12646h-3.01562v9.33887Z" fill="#fff"/>
    <path d="M1613.39941,117.41504c0,2.3623-.85352,4.21533-2.56152,5.56006-1.70801,1.34424-4.06445,2.0166-7.06836,2.0166s-5.46289-.46582-7.37598-1.39893v-4.10645c1.21094.56982,2.49805,1.01758,3.86035,1.34473,1.36328.32715,2.63184.49072,3.80664.49072,1.71973,0,2.98926-.32715,3.80664-.98145.81738-.65381,1.22656-1.53223,1.22656-2.63428,0-.99316-.37598-1.83545-1.12695-2.52588s-2.30176-1.50781-4.65137-2.45264c-2.42285-.98096-4.13086-2.10156-5.12402-3.36133s-1.48926-2.77344-1.48926-4.54248c0-2.21631.78711-3.96094,2.3623-5.23242,1.57422-1.27197,3.6875-1.90771,6.34082-1.90771,2.54395,0,5.0752.55713,7.59473,1.67139l-1.38086,3.54297c-2.3623-.99316-4.46973-1.48975-6.32324-1.48975-1.40527,0-2.4707.30615-3.19727.91748-.72754.61182-1.09082,1.42041-1.09082,2.42578,0,.69043.14551,1.28076.43652,1.77148.29102.49023.76855.95361,1.43555,1.38965.66602.43604,1.86523,1.01172,3.59668,1.72607,1.9502.81152,3.37988,1.56885,4.28809,2.27148.90918.70264,1.5752,1.49609,1.99902,2.37988.42383.88428.63574,1.92578.63574,3.125Z" fill="#fff"/>
  </g>
</svg>