<?xml version="1.0" encoding="UTF-8"?>
<svg id="Layer_1" data-name="Layer 1" xmlns="http://www.w3.org/2000/svg" viewBox="0 0 520 50">
  <g>
    <g>
      <path d="M86.66748,1.3877c.07129-.26465.35645-.46387.6416-.46387h.78418c.35645,0,.57031.13281.71289.46387l14.68555,40.66992h.14258L118.39111,1.3877c.14258-.33105.35645-.46387.71289-.46387h.78418c.28516,0,.57031.19922.6416.46387l10.12305,45.7041c.14258.66309-.14258.86133-.78418.86133h-1.71094c-.42773,0-.78418-.33105-.85547-.72852l-8.05566-38.81543h-.14258l-14.40039,39.67676c-.14258.39746-.57031.5293-.99805.5293h-.28516c-.35645,0-.78418-.06641-.92676-.5293l-14.40039-39.67676h-.14258l-8.05566,38.81543c-.07129.39746-.42773.72852-.85547.72852h-1.71094c-.6416,0-.92676-.19824-.78418-.86133L86.66748,1.3877Z" fill="#fff"/>
      <path d="M151.33008,20.7959c7.98438,0,14.3291,6.29199,14.3291,13.84375,0,7.74902-6.34473,13.97559-14.3291,13.97559-8.05566,0-14.3291-6.22656-14.3291-13.97559,0-7.55176,6.27344-13.84375,14.3291-13.84375ZM151.33008,45.89941c6.27344,0,11.19238-4.96777,11.19238-11.25977,0-6.09375-4.91895-11.0625-11.19238-11.0625-6.34473,0-11.26367,4.96875-11.26367,11.0625,0,6.29199,4.91895,11.25977,11.26367,11.25977Z" fill="#fff"/>
      <path d="M174.35742,22.31934c0-.46387.42773-.86133.92676-.86133h.85547c.42773,0,.71289.26465.78418.66211l.35645,2.84863c.78418-.99414,4.06348-4.17285,9.83789-4.17285,4.34863,0,7.55664,1.72168,9.33887,4.83496.85547-1.05957,4.84766-4.83496,10.69336-4.83496,7.77051,0,11.12109,4.70312,11.12109,12.12109v14.1748c0,.46387-.42773.86133-.92676.86133h-1.42578c-.42773,0-.78418-.33105-.78418-.86133v-14.1748c0-6.09375-2.85156-9.27344-8.19824-9.27344s-8.4834,3.44434-9.41016,4.50488c.42773,1.39062.6416,2.98047.6416,4.76855v14.1748c0,.46387-.42773.86133-.92676.86133h-1.35449c-.49902,0-.85547-.33105-.85547-.86133v-14.1748c0-6.09375-2.92285-9.27344-8.26953-9.27344-5.77441,0-8.91113,4.04102-9.26758,4.57031v18.87793c0,.53027-.28516.86133-.92676.86133h-1.42578c-.49902,0-.78418-.39746-.78418-.86133v-24.77246Z" fill="#fff"/>
      <path d="M240.72949,20.7959c7.48535,0,12.90332,5.09961,12.90332,12.12109,0,1.05957,0,2.58301-1.06934,2.58301h-22.74121c.28516,5.69727,4.70508,10.46582,11.12109,10.46582,3.77832,0,6.70117-1.39062,8.41211-2.4502.6416-.39746.92676-.46387,1.2832,0l.71289.92676c.21387.26465.14258.66211-.28516,1.05957-1.42578,1.3252-5.91699,3.11328-10.33691,3.11328-8.69727,0-14.04395-6.22656-14.04395-13.97559,0-7.55176,5.34668-13.84375,14.04395-13.84375ZM250.49609,33.11523c0-5.16602-3.35059-9.66992-9.7666-9.66992-6.27344,0-10.47949,4.23926-10.83594,9.66992h20.60254Z" fill="#fff"/>
      <path d="M262.04688,22.31934c0-.46387.42773-.86133.99805-.86133h.71289c.49902,0,.78418.26465.85547.66211l.28516,2.84863c.92676-.92773,4.84766-4.17285,10.55078-4.17285,7.98438,0,11.47754,4.70312,11.47754,12.12109v14.1748c0,.46387-.42773.86133-.92676.86133h-1.2832c-.49902,0-.92676-.39746-.92676-.86133v-14.1748c0-6.09375-3.06543-9.27344-8.4834-9.27344-5.8457,0-9.90918,4.23926-10.19434,4.57031v18.87793c0,.53027-.28516.86133-.92676.86133h-1.35449c-.49902,0-.78418-.39746-.78418-.86133v-24.77246Z" fill="#fff"/>
      <path d="M298.54785,24.04102h-3.35059c-.71289,0-.85547-.33105-.85547-.86035v-1.06055c0-.46387.35645-.66211.85547-.66211h3.35059v-7.21973c0-.53027.42773-.86133.92676-.86133l1.21191-.06641c.49902,0,.92676.39746.92676.86133v7.28613h9.90918c.57031,0,.92676.39746.92676.86133v.86133c0,.5293-.35645.86035-.92676.86035h-9.90918v16.89062c0,3.11328.35645,4.83594,3.70703,4.83594,2.49512,0,5.56055-1.25879,6.4873-1.78906.6416-.33105.92676-.06641,1.14062.26562l.49902.79492c.28516.46289.21387.86035-.21387,1.12598-1.06934.79492-4.20605,2.4502-8.26953,2.4502-5.91699,0-6.41602-3.24512-6.41602-7.48438v-17.08984Z" fill="#fff"/>
      <path d="M332.98145,20.7959c7.98438,0,14.3291,6.29199,14.3291,13.84375,0,7.74902-6.34473,13.97559-14.3291,13.97559-8.05566,0-14.3291-6.22656-14.3291-13.97559,0-7.55176,6.27344-13.84375,14.3291-13.84375ZM332.98145,45.89941c6.27344,0,11.19238-4.96777,11.19238-11.25977,0-6.09375-4.91895-11.0625-11.19238-11.0625-6.34473,0-11.26367,4.96875-11.26367,11.0625,0,6.29199,4.91895,11.25977,11.26367,11.25977Z" fill="#fff"/>
      <path d="M356.93555,2.44727c0-.46289.42773-.86035.92676-.86035h15.18457c8.76855,0,14.75684,4.70215,14.75684,11.98828,0,5.2334-3.42188,9.0752-7.8418,10.73145,5.06152,1.25781,9.41016,4.70215,9.41016,11.06152,0,7.41797-6.41602,12.58496-15.68359,12.58496h-15.82617c-.49902,0-.92676-.39746-.92676-.86133V2.44727ZM373.97363,45.1709c6.91504,0,11.7627-4.10645,11.7627-9.86914,0-5.89551-5.41797-9.40625-12.19043-9.40625h-13.33105v19.27539h13.75879ZM373.5459,23.04785c6.70117,0,10.62207-3.9082,10.62207-9.33984,0-5.7627-4.27734-9.20703-11.12109-9.20703h-12.76074v18.54688h13.25977Z" fill="#fff"/>
      <path d="M410.97461,20.7959c7.98438,0,14.3291,6.29199,14.3291,13.84375,0,7.74902-6.34473,13.97559-14.3291,13.97559-8.05566,0-14.3291-6.22656-14.3291-13.97559,0-7.55176,6.27344-13.84375,14.3291-13.84375ZM410.97461,45.89941c6.27344,0,11.19238-4.96777,11.19238-11.25977,0-6.09375-4.91895-11.0625-11.19238-11.0625-6.34473,0-11.26367,4.96875-11.26367,11.0625,0,6.29199,4.91895,11.25977,11.26367,11.25977Z" fill="#fff"/>
      <path d="M446.19238,20.7959c7.98438,0,14.3291,6.29199,14.3291,13.84375,0,7.74902-6.34473,13.97559-14.3291,13.97559-8.05566,0-14.3291-6.22656-14.3291-13.97559,0-7.55176,6.27344-13.84375,14.3291-13.84375ZM446.19238,45.89941c6.27344,0,11.19238-4.96777,11.19238-11.25977,0-6.09375-4.91895-11.0625-11.19238-11.0625-6.34473,0-11.26367,4.96875-11.26367,11.0625,0,6.29199,4.91895,11.25977,11.26367,11.25977Z" fill="#fff"/>
      <path d="M470.43164,24.04102h-3.35059c-.71289,0-.85547-.33105-.85547-.86035v-1.06055c0-.46387.35645-.66211.85547-.66211h3.35059v-7.21973c0-.53027.42773-.86133.92676-.86133l1.21191-.06641c.49902,0,.92676.39746.92676.86133v7.28613h9.90918c.57031,0,.92676.39746.92676.86133v.86133c0,.5293-.35645.86035-.92676.86035h-9.90918v16.89062c0,3.11328.35645,4.83594,3.70703,4.83594,2.49512,0,5.56055-1.25879,6.4873-1.78906.6416-.33105.92676-.06641,1.14062.26562l.49902.79492c.28516.46289.21387.86035-.21387,1.12598-1.06934.79492-4.20605,2.4502-8.26953,2.4502-5.91699,0-6.41602-3.24512-6.41602-7.48438v-17.08984Z" fill="#fff"/>
      <path d="M492.6748,2.44727c0-.46289.42773-.86035.99805-.86035h1.14062c.49902,0,.92676.39746.92676.86035v22.58789c.92676-.86133,4.70508-4.23926,10.33691-4.23926,7.41406,0,11.47754,4.23926,11.47754,12.12109v14.1748c0,.46387-.42773.86133-.92676.86133h-1.2832c-.49902,0-.92676-.39746-.92676-.86133v-14.1748c0-6.09375-3.06543-9.27344-8.4834-9.27344-5.91699,0-9.90918,4.30566-10.19434,4.63672v18.81152c0,.53027-.28516.86133-.92676.86133h-1.35449c-.49902,0-.78418-.39746-.78418-.86133V2.44727Z" fill="#fff"/>
    </g>
    <path id="path3773" d="M152.47836,37.88786c1.61823-.62125,2.42645-2.4367,1.80521-4.05494-.62125-1.61823-2.4367-2.42645-4.05494-1.8052-1.61823.62124-2.42645,2.4367-1.80521,4.05494.31877.83034.97487,1.48644,1.80521,1.8052l-2.11414,5.50882c-4.66064-1.78886-6.98868-7.0172-5.19983-11.67784s7.0172-6.98868,11.67784-5.19983c4.66064,1.78886,6.98868,7.0172,5.19983,11.67784-.91805,2.39186-2.80797,4.28178-5.19983,5.19983l-2.11414-5.50882Z" fill="none" stroke="#f36" stroke-linejoin="round"/>
    <path d="M333.02707,26.21913c.15063,0,.30164.00425.45355.01279l-2.97858,5.15807-2.16614-3.75817c1.38715-.91568,3.0242-1.4127,4.69116-1.4127M336.80933,27.12007c1.62817.81313,2.96527,2.14006,3.79195,3.74906h-5.95624l2.16429-3.74906M325.911,30.09077l2.96216,5.12682.23088.40153h-4.52971c-.03166-.29887-.04726-.5973-.04726-.9,0-1.65123.48444-3.25317,1.38393-4.62835M341.47981,33.81913c.03166.29887.04726.5973.04726.9,0,1.65809-.48369,3.26072-1.38168,4.63046l-3.1909-5.53046h4.52533M335.55043,38.04534l2.1678,3.76109c-1.38715.91569-3.02419,1.4127-4.69116,1.4127-.15086,0-.30206-.00426-.45421-.01283l2.96228-5.13464.01529-.02632M331.40912,38.56913l-2.16428,3.74906c-1.62819-.81313-2.96529-2.14006-3.79196-3.74906h5.95624M333.02707,25.21913c-2.28,0-4.37.8075-6.004,2.1375l3.47701,6.0325.05699-.095,4.53151-7.847c-.66501-.1425-1.349-.228-2.06151-.228h0ZM336.39008,25.84613l-3.47701,6.023h9.177c-.87399-2.774-2.99249-4.997-5.7-6.023h0ZM326.03508,28.30663c-1.54851,1.691-2.50801,3.933-2.50801,6.4125,0,.6555.0665,1.2825.19,1.9h7.11549l-1.0925-1.9-3.70499-6.4125h0ZM342.33707,32.81913h-7.11549l.2755.475,4.522,7.8375c1.558-1.691,2.508-3.933,2.508-6.4125,0-.6555-.0665-1.2825-.19-1.9h0ZM335.55408,36.04913l-.8835,1.52-3.705,6.422c.66499.1425,1.349.228,2.06149.228,2.28,0,4.37001-.8075,6.004-2.1375l-3.47699-6.0325h0ZM333.14107,37.56913h-9.177c.87401,2.774,2.99251,4.997,5.70001,6.023l3.47699-6.023h0Z" fill="#f36"/>
  </g>
  <g>
    <g>
      <path d="M7.64307,49.07422c-3.05713,0-5.54492-2.55664-5.54492-5.69922V14.80029c0-3.14258,2.48779-5.69971,5.54492-5.69971h3.18896l5.81543-6.93604c.38916-.51025.96826-.80078,1.56885-.80078h10.31592c.60107,0,1.18018.29053,1.5498.77686l5.83447,6.95996h21.2417c3.05713,0,5.54492,2.55713,5.54492,5.69971v28.57471c0,3.14258-2.48779,5.69922-5.54492,5.69922H7.64307Z" fill="#2e272d"/>
      <path d="M28.53227,2.00871c.39451,0,.79167.20012,1.03651.52226l.01868.02458.01982.02365,5.62207,6.70533.38652.46099h21.54252c2.70189,0,4.90005,2.26749,4.90005,5.05461v28.57464c0,2.78721-2.19816,5.05478-4.90005,5.05478H7.64296c-2.70189,0-4.90003-2.26757-4.90003-5.05478V14.80013c0-2.78712,2.19814-5.05461,4.90003-5.05461h3.48999l.38652-.46099,5.62206-6.70533.01984-.02365.01868-.02459c.24482-.32213.64198-.52224,1.03648-.52224h10.31575M28.53227.71924h-10.31575c-.79945,0-1.5731.38674-2.06311,1.03148l-5.62206,6.70533h-2.8884c-3.43003,0-6.1895,2.83677-6.1895,6.34408v28.57464c0,3.50732,2.75947,6.34425,6.1895,6.34425h49.51543c3.43003,0,6.18951-2.83692,6.18951-6.34425V14.80013c0-3.50731-2.75948-6.34408-6.18951-6.34408h-20.94093l-5.62207-6.70533c-.49001-.64473-1.26366-1.03148-2.06312-1.03148h0Z" fill="#f36"/>
    </g>
    <rect id="Shutter_button" data-name="Shutter button" x="45.29535" y="5.87711" width="7.73681" height="2.57894" fill="#f36"/>
    <g id="MB">
      <g>
        <g>
          <path d="M22.26709,41.03418c-.45605,0-.86719-.28027-1.00049-.68164l-5.19824-13.20898-2.04834,12.71973c-.06543.4502-.55664.85254-1.05078.85254h-2.06934c-.44775,0-.7085-.19238-.84863-.35352-.14404-.16602-.30176-.46191-.23584-.92969l3.95215-21.41797c.12744-.51074.5752-.87354,1.04834-.87354h.51025c.37305,0,.86377.27393.99951.68164l6.25879,15.29932,6.23975-15.3291c.11719-.35303.55615-.65186.98877-.65186h.50977c.47412,0,.92188.36279,1.04199.84473l3.92285,21.42725c.07568.35059.01025.68555-.1875.92969-.19434.24121-.5.37305-.86084.37305h-2.06982c-.47998,0-.93994-.34277-1.06934-.79688l-2.10986-12.72559-5.1582,13.18262c-.12988.39062-.52246.6582-.99219.6582h-.57275Z" fill="#f36"/>
          <path d="M30.3229,17.62474c.25491,0,.50908.22305.57281.47759l3.91634,21.39721c.09559.4461-.12671.73251-.57281.73251h-2.06969c-.28677,0-.54095-.22305-.60468-.44573l-2.35648-14.23294h-.09559l-5.73112,14.64681c-.06373.19118-.25491.35013-.54169.35013h-.57281c-.25491,0-.47796-.15895-.54169-.35013l-5.76298-14.64681h-.12746l-2.29274,14.23294c-.03186.22268-.31792.44573-.57282.44573h-2.06969c-.4461,0-.6684-.28641-.60542-.73251l3.94894-21.39721c.06374-.25454.3179-.47759.57281-.47759h.50983c.19043,0,.47723.15932.54095.3505l6.65445,16.27078h.12745l6.62331-16.27078c.06372-.19118.31864-.3505.54095-.3505h.50983M30.3229,16.65764h-.50983c-.635,0-1.2353.40649-1.44455.97231l-5.78539,14.21235-5.81332-14.21411c-.22696-.60848-.9048-.97055-1.44386-.97055h-.50983c-.68871,0-1.33827.5201-1.51096,1.2098l-.00738.02949-.00552.02988-3.94895,21.39721c-.07805.54665.04606,1.01368.3429,1.35536.29118.33518.72218.51977,1.21357.51977h2.06969c.74308,0,1.42952-.57235,1.53017-1.27586l1.76553-10.95933,4.55376,11.57355c.20885.57863.79931.97992,1.44823.97992h.57281c.68159,0,1.25436-.39699,1.45916-1.01139l4.50069-11.49952,1.81091,10.93777.00906.05476.01528.05337c.19016.66446.83549,1.14673,1.53445,1.14673h2.06969c.5098,0,.94904-.19606,1.23685-.55206.29103-.35999.39103-.83949.2816-1.35018l-3.91068-21.3687-.0056-.03059-.00755-.03018c-.17268-.6897-.82225-1.2098-1.51096-1.2098h0Z" fill="#f36"/>
        </g>
        <g>
          <path d="M40.09326,40.71582c-.6001,0-1.08789-.48828-1.08789-1.08887v-21.07861c0-.6001.48779-1.08838,1.08789-1.08838h7.13232c4.05176,0,7.10693,2.74023,7.10693,6.37402,0,2.51465-1.68701,4.1709-2.81104,4.99609,1.43506.77148,3.47949,2.37793,3.47949,5.25684,0,3.84082-3.12256,6.62891-7.4248,6.62891h-7.48291ZM47.54443,36.81934c1.68506,0,2.95557-1.28418,2.95557-2.9873,0-1.57715-1.54004-2.86035-3.43262-2.86035h-3.87939v5.84766h4.35645ZM47.03516,27.13965c1.67236,0,2.7959-1.17529,2.7959-2.92383,0-1.72461-1.07129-2.7959-2.7959-2.7959h-3.81494v5.71973h3.81494Z" fill="#f36"/>
          <path d="M47.22577,17.94339c3.85335,0,6.62332,2.54728,6.62332,5.89044,0,2.45169-1.81478,4.20311-3.31166,5.06271,1.68732.70064,3.98007,2.26087,3.98007,5.19016,0,3.56621-2.92929,6.14536-6.94122,6.14536h-7.48291c-.34977,0-.60468-.28641-.60468-.60505v-21.07857c0-.31865.25491-.60505.60468-.60505h7.1324M42.73662,27.62307h4.29871c2.03783,0,3.27905-1.49651,3.27905-3.40725,0-1.94224-1.24122-3.27943-3.27905-3.27943h-4.29871v6.68668M42.70475,37.30276h4.83966c1.94224,0,3.43912-1.49651,3.43912-3.47061,0-1.94261-1.84664-3.34352-3.91634-3.34352h-4.36244v6.81413M47.22577,16.97629h-7.1324c-.86668,0-1.57178.70526-1.57178,1.57215v21.07857c0,.86689.7051,1.57215,1.57178,1.57215h7.48291c4.58239,0,7.90832-2.99122,7.90832-7.11246,0-2.17196-1.11357-4.04956-3.10715-5.32255,1.13018-.97924,2.43874-2.61363,2.43874-4.93032,0-3.90944-3.26317-6.85754-7.59042-6.85754h0ZM43.70372,21.9035h3.33161c1.44767,0,2.31195.86442,2.31195,2.31233,0,1.12566-.60549,2.44015-2.31195,2.44015h-3.33161v-4.75248h0ZM43.67185,31.45573h3.39534c1.62622,0,2.94924,1.06606,2.94924,2.37642,0,1.42723-1.06274,2.50351-2.47202,2.50351h-3.87256v-4.87993h0Z" fill="#f36"/>
        </g>
      </g>
    </g>
  </g>
</svg>